<svg width="20" height="20" viewBox="0 0 20 20" fill="none" xmlns="http://www.w3.org/2000/svg">
<g clip-path="url(#clip0)">
<path d="M16.9565 5.11611H15.7919C15.9455 4.87299 16.0469 4.60008 16.0758 4.31145C16.1681 3.38905 15.6823 2.56217 14.8553 2.19558C14.0951 1.85861 13.2408 1.99636 12.6257 2.5543L11.1551 3.88711C10.8687 3.57386 10.4569 3.37699 10 3.37699C9.54225 3.37699 9.12988 3.57449 8.84341 3.88871L7.37091 2.55414C6.75475 1.9962 5.90081 1.85899 5.14097 2.19577C4.31416 2.56239 3.82828 3.38955 3.92091 4.31192C3.94987 4.60033 4.05119 4.87311 4.20478 5.11611H3.04347C2.46716 5.11611 2 5.5833 2 6.15958V7.7248C2 8.01292 2.23359 8.24655 2.52175 8.24655H17.4783C17.7664 8.24655 18 8.01295 18 7.7248V6.15958C18 5.5833 17.5328 5.11611 16.9565 5.11611ZM8.43478 4.9422V5.11611H5.98031C5.33181 5.11611 4.82144 4.51155 4.98341 3.83636C5.05475 3.53902 5.26937 3.28555 5.54697 3.15724C5.92816 2.98105 6.35041 3.03761 6.67056 3.32739L8.43522 4.92683C8.43512 4.93199 8.43478 4.93705 8.43478 4.9422ZM15.0404 4.17292C15.0016 4.7152 14.5117 5.11617 13.9681 5.11617H11.5652V4.94227C11.5652 4.93611 11.5648 4.93002 11.5648 4.92386C11.9645 4.56149 12.8317 3.77549 13.3021 3.34914C13.5694 3.10686 13.9434 2.99377 14.2892 3.09689C14.7853 3.24489 15.0767 3.66683 15.0404 4.17292Z" fill="#19B5FE"/>
<path d="M3.04297 9.29004V16.9422C3.04297 17.5185 3.51012 17.9857 4.08644 17.9857H8.956V9.29004H3.04297Z" fill="#19B5FE"/>
<path d="M11.043 9.29004V17.9857H15.9125C16.4888 17.9857 16.956 17.5185 16.956 16.9422V9.29004H11.043Z" fill="#19B5FE"/>
</g>
<defs>
<clipPath id="clip0">
<rect width="16" height="16" fill="white" transform="translate(2 2)"/>
</clipPath>
</defs>
</svg>
