<svg width="17" height="14" viewBox="0 0 17 14" fill="none" xmlns="http://www.w3.org/2000/svg">
<path d="M0.000101734 5.62325C-0.00728919 6.26554 0.388637 6.84359 0.990183 7.0688V4.31634C0.990183 4.27674 1.00997 4.21734 1.00997 4.17773C0.404366 4.40113 0.00157992 4.9777 0.000101734 5.62325Z" fill="#A8AEBC"/>
<path d="M5.40656 9.0293H2.8125L3.7828 12.554C3.92648 13.092 4.41413 13.4658 4.97092 13.465C5.36707 13.4697 5.74188 13.2859 5.98082 12.9699C6.22207 12.6693 6.29647 12.2677 6.17882 11.9006L5.40656 9.0293Z" fill="#A8AEBC"/>
<path d="M1.01172 4.15846H1.0315V4.13867C1.0315 4.15846 1.0315 4.15846 1.01172 4.15846Z" fill="#A8AEBC"/>
<path d="M15.2073 3.88086H15.0488V7.44522H15.2073C16.1915 7.44522 16.9894 6.6473 16.9894 5.66306C16.9894 4.67878 16.1915 3.88086 15.2073 3.88086Z" fill="#A8AEBC"/>
<path d="M1.58398 4.31659V7.12848C1.6054 7.85666 2.20206 8.43573 2.9305 8.43543H6.53447V3.08887H2.9305C2.21763 3.08887 1.58398 3.60373 1.58398 4.31659Z" fill="#A8AEBC"/>
<path d="M7.12891 8.51484L14.4556 11.4456V0L7.12891 2.93071V8.51484Z" fill="#A8AEBC"/>
</svg>
