<svg width="20" height="20" viewBox="0 0 20 20" fill="none" xmlns="http://www.w3.org/2000/svg">
<path fill-rule="evenodd" clip-rule="evenodd" d="M1.66602 10.0003C1.66602 5.40033 5.39935 1.66699 9.99935 1.66699C14.5993 1.66699 18.3327 5.40033 18.3327 10.0003C18.3327 14.6003 14.5993 18.3337 9.99935 18.3337C5.39935 18.3337 1.66602 14.6003 1.66602 10.0003ZM11.1742 16.667V15.0753C12.6242 14.8003 13.7659 13.967 13.7742 12.442C13.7742 10.342 11.9742 9.61699 10.2909 9.18366C8.60757 8.75033 8.0659 8.29199 8.0659 7.59199C8.0659 6.79199 8.8159 6.22533 10.0659 6.22533C11.3826 6.22533 11.8742 6.85866 11.9159 7.78366H13.5492C13.4992 6.50866 12.7242 5.33366 11.1742 4.95866V3.33366H8.94923V4.94199C7.5159 5.25033 6.35756 6.18366 6.35756 7.61699C6.35756 9.32533 7.77423 10.1753 9.8409 10.6753C11.6992 11.117 12.0659 11.767 12.0659 12.4587C12.0659 12.967 11.6992 13.7837 10.0659 13.7837C8.5409 13.7837 7.9409 13.1003 7.85756 12.2253H6.22423C6.3159 13.842 7.52423 14.7587 8.94923 15.0587V16.667H11.1742Z" fill="#A8AEBC"/>
</svg>
