<svg width="20" height="20" viewBox="0 0 20 20" fill="none" xmlns="http://www.w3.org/2000/svg">
<path fill-rule="evenodd" clip-rule="evenodd" d="M18.334 7.5H14.3423L10.684 2.025C10.3506 1.53333 9.62565 1.53333 9.30065 2.025L5.64232 7.5H1.66732C1.20898 7.5 0.833984 7.875 0.833984 8.33333C0.833984 8.40833 0.842318 8.48333 0.867318 8.55833L2.98398 16.2833C3.17565 16.9833 3.81732 17.5 4.58398 17.5H15.4173C16.184 17.5 16.8257 16.9833 17.0257 16.2833L19.1423 8.55833L19.1673 8.33333C19.1673 7.875 18.7923 7.5 18.334 7.5ZM9.99237 3.99167L12.334 7.5H7.6507L9.99237 3.99167ZM8.33398 12.5C8.33398 13.4167 9.08398 14.1667 10.0007 14.1667C10.9173 14.1667 11.6673 13.4167 11.6673 12.5C11.6673 11.5833 10.9173 10.8333 10.0007 10.8333C9.08398 10.8333 8.33398 11.5833 8.33398 12.5Z" fill="#A8AEBC"/>
</svg>
