<svg width="174" height="26" viewBox="0 0 174 26" fill="none" xmlns="http://www.w3.org/2000/svg">
<path d="M45.4324 16.0028C45.4324 16.5401 45.3136 17.109 45.0795 17.7165C44.8419 18.3205 44.4646 18.8788 43.9441 19.3915C43.4235 19.9042 42.7527 20.3221 41.9317 20.6452C41.1107 20.9683 40.2198 21.1333 39.2485 21.1333C38.2773 21.1333 37.4108 20.9788 36.6422 20.6663C35.2028 20.0904 34.263 19.086 33.8298 17.6533C33.718 17.267 33.6621 16.9053 33.6621 16.5682C33.6621 15.4831 33.9905 14.4647 34.6508 13.5166L34.8185 13.6465C34.4098 14.384 34.2036 15.0933 34.2036 15.7816C34.2036 16.6314 34.4133 17.3794 34.836 18.029C35.2587 18.6787 35.8247 19.1844 36.5304 19.5461C37.2397 19.9077 37.9628 20.0904 38.7 20.0904C39.4372 20.0904 40.0626 19.971 40.5726 19.7357C41.0827 19.4969 41.4531 19.1808 41.6906 18.7805C41.9247 18.3802 42.0435 17.9623 42.0435 17.5269C42.0435 17.0914 41.8863 16.6455 41.5788 16.1889C41.2679 15.7324 40.8102 15.3356 40.1988 15.002L37.1628 13.2041C35.6221 12.2946 34.8535 11.1217 34.8535 9.68544C34.8535 8.40019 35.3007 7.4064 36.195 6.70759C36.9392 6.12115 37.9524 5.82617 39.2311 5.82617C40.0521 5.82617 41.0932 5.88938 42.3614 6.01229H43.8148L43.4235 9.06388H43.2383C43.2383 8.3756 42.9728 7.82077 42.4383 7.39586C41.9037 6.97096 41.2225 6.76026 40.391 6.76026C39.5595 6.76026 38.9201 6.90424 38.4729 7.19219C38.0257 7.48014 37.7847 7.8594 37.7462 8.33347C37.7078 8.65653 37.7952 8.93395 38.0083 9.15869C38.1934 9.35886 38.3821 9.50986 38.5673 9.61872C38.7524 9.72406 38.9201 9.82239 39.0704 9.91018C39.2206 9.99797 39.3254 10.0542 39.3883 10.0787L42.8715 12.0839C43.6541 12.5193 44.262 13.0636 44.6952 13.7133C45.1808 14.4367 45.4324 15.2057 45.4324 16.0028Z" fill="#19B5FE"/>
<path d="M64.0915 22.3871C63.1343 22.949 62.1595 23.2299 61.1673 23.2299C60.1751 23.2299 59.2318 23.0438 58.3444 22.668C57.457 22.2923 56.5871 21.6426 55.7381 20.7121C54.8857 19.7815 54.1904 18.6508 53.6419 17.3128L53.1388 16.0767H49.156L48.4119 17.8185C48.349 17.98 48.3175 18.11 48.3175 18.2118C48.3175 18.3136 48.3385 18.4225 48.3839 18.5384C48.4293 18.6543 48.5202 18.7631 48.6634 18.8579C48.8066 18.9528 48.9569 18.9984 49.1211 18.9984H49.2888V19.1845H45.1348V18.9984H45.3025C45.5889 18.9984 45.8719 18.9141 46.1514 18.7456C46.4309 18.577 46.665 18.3242 46.8502 17.9871L50.6513 9.60132C50.2775 8.56539 49.97 7.87009 49.729 7.51542C49.4879 7.16075 49.2853 6.88684 49.1246 6.70073C48.8276 6.35308 48.4538 6.09673 48.0066 5.93168C47.8319 5.86847 47.6293 5.83687 47.3917 5.83687C47.1541 5.83687 46.8886 5.89305 46.5916 6.00543L46.5532 5.81931C47.5454 5.23287 48.4957 4.94141 49.4041 4.94141C50.7456 4.94141 51.9545 5.60159 53.0375 6.92547C53.5825 7.61375 54.0751 8.44249 54.5083 9.4152L57.4885 16.2839C58.0335 17.5446 58.4388 18.3909 58.6973 18.8193C58.9593 19.2512 59.1899 19.6164 59.396 19.9255C59.6022 20.231 59.8013 20.4979 60.0004 20.7226C60.1996 20.9473 60.4162 21.1651 60.6538 21.3793C61.0625 21.755 61.5796 22.0359 62.198 22.2221C62.46 22.3099 62.7465 22.352 63.0644 22.352C63.3823 22.352 63.7142 22.3028 64.0601 22.201L64.0915 22.3871ZM49.5648 15.1426H52.7685L51.5946 12.2421C51.4968 12.0173 51.378 11.6978 51.2417 11.2869L49.5648 15.1426Z" fill="#19B5FE"/>
<path d="M75.9771 21.6736C77.5283 21.6736 78.6043 21.4067 79.1983 20.8694L79.3485 20.9994C78.8035 22.1863 78.0209 23.0642 77.0007 23.6401C76.3684 23.9878 75.4356 24.1633 74.2058 24.1633C74.08 24.1633 73.8669 24.1563 73.5629 24.1458C73.259 24.1352 72.7699 24.0299 72.0921 23.8368C71.4143 23.6436 70.8483 23.468 70.3872 23.3135C69.926 23.159 69.3495 22.9167 68.6543 22.5936C67.7844 22.1828 66.9529 21.7684 66.1598 21.3505C65.3632 20.9327 64.7833 20.6307 64.4165 20.4445C64.0496 20.2584 63.6688 20.0793 63.2705 19.9108C62.8722 19.7422 62.3272 19.5807 61.632 19.4227C60.9367 19.2681 60.2275 19.1874 59.5078 19.1874V18.9978H59.7489C60.1961 18.9978 60.5385 18.8046 60.7725 18.4183C60.8704 18.2428 60.9262 18.0426 60.9402 17.8179V7.44805C60.9262 6.98803 60.7236 6.64389 60.3253 6.41915C60.1507 6.32082 59.9585 6.26815 59.7489 6.26815H59.5078V6.08203H66.1947V6.26815H66.0305C65.6707 6.26815 65.3737 6.38052 65.1362 6.60526C64.8986 6.83001 64.7763 7.11093 64.7623 7.44805V18.3446C64.7623 18.931 64.9964 19.2998 65.4715 19.4508C70.2754 20.9327 73.7761 21.6736 75.9771 21.6736Z" fill="#19B5FE"/>
<path d="M74.0778 11.0798C73.6935 10.4302 73.5013 9.74541 73.5013 9.02202C73.5013 8.02472 73.8751 7.21353 74.6193 6.58847C75.0665 6.20219 75.6185 5.94584 76.2753 5.81942C76.6736 5.75621 76.9915 5.72461 77.2361 5.72461C77.4771 5.72461 77.7357 5.72812 78.0082 5.73514C78.2807 5.74217 78.6825 5.82645 79.21 5.98798C79.7376 6.14951 80.2511 6.34617 80.7472 6.57793C81.2433 6.8097 81.7115 7.12574 82.1552 7.52256C82.5954 7.92288 82.9832 8.35832 83.3186 8.83239C84.0383 9.85778 84.3981 11.0904 84.3981 12.5407C84.3981 14.6371 83.626 16.3121 82.0783 17.5658C80.5341 18.8194 78.4868 19.448 75.9399 19.448C73.393 19.448 71.3387 18.8194 69.7735 17.5588C68.2084 16.2981 67.4258 14.6371 67.4258 12.5793C67.4258 10.8832 67.9498 9.42585 68.9979 8.20732C70.0461 6.98879 71.4156 6.23731 73.103 5.95286L73.2148 6.13898C72.7048 6.67626 72.2995 7.46988 71.9955 8.52688C71.6916 9.58036 71.5379 10.7216 71.5379 11.9437C71.5379 13.9277 71.9361 15.5185 72.7292 16.716C73.5223 17.9134 74.5809 18.5139 75.905 18.5139C77.2291 18.5139 78.2842 17.9696 79.0807 16.8845C79.8738 15.7994 80.2721 14.3526 80.2721 12.5407C80.2721 11.3924 80.1149 10.3635 79.7969 9.45043C79.479 8.54093 79.0423 7.85967 78.4833 7.41019C77.9243 6.9607 77.3339 6.73596 76.7155 6.73596C75.9085 6.73596 75.2866 6.97826 74.8534 7.46637C74.3433 8.02823 74.0883 8.72704 74.0883 9.56281C74.0883 10.0369 74.1581 10.5425 74.2944 11.0798H74.0778Z" fill="#19B5FE"/>
<path d="M92.3454 11.0798C91.9611 10.4302 91.7689 9.74541 91.7689 9.02202C91.7689 8.02472 92.1427 7.21353 92.8869 6.58847C93.3341 6.20219 93.8861 5.94584 94.5429 5.81942C94.9412 5.75621 95.2591 5.72461 95.5037 5.72461C95.7447 5.72461 96.0033 5.72812 96.2758 5.73514C96.5483 5.74217 96.95 5.82645 97.4776 5.98798C98.0051 6.14951 98.5187 6.34617 99.0148 6.57793C99.5109 6.8097 99.9791 7.12574 100.423 7.52256C100.863 7.92288 101.251 8.35832 101.586 8.83239C102.306 9.85778 102.666 11.0904 102.666 12.5407C102.666 14.6371 101.894 16.3121 100.346 17.5658C98.8017 18.8194 96.7544 19.448 94.2075 19.448C91.6606 19.448 89.6063 18.8194 88.0411 17.5588C86.4759 16.2981 85.6934 14.6371 85.6934 12.5793C85.6934 10.8832 86.2174 9.42585 87.2655 8.20732C88.3136 6.98879 89.6832 6.23731 91.3706 5.95286L91.4824 6.13898C90.9723 6.67626 90.5671 7.46988 90.2631 8.52688C89.9592 9.58036 89.8054 10.7216 89.8054 11.9437C89.8054 13.9277 90.2037 15.5185 90.9968 16.716C91.7899 17.9134 92.8484 18.5139 94.1726 18.5139C95.4967 18.5139 96.5518 17.9696 97.3483 16.8845C98.1414 15.7994 98.5397 14.3526 98.5397 12.5407C98.5397 11.3924 98.3825 10.3635 98.0645 9.45043C97.7466 8.54093 97.3099 7.85967 96.7509 7.41019C96.1919 6.9607 95.6015 6.73596 94.9831 6.73596C94.1761 6.73596 93.5542 6.97826 93.121 7.46637C92.6109 8.02823 92.3558 8.72704 92.3558 9.56281C92.3558 10.0369 92.4257 10.5425 92.562 11.0798H92.3454Z" fill="#19B5FE"/>
<path d="M124.12 21.7124C123.362 22.1864 122.545 22.4252 121.661 22.4252C120.892 22.4252 120.089 22.1934 119.257 21.7334C118.401 21.2699 117.563 20.6167 116.742 19.7669L108.566 11.2688V17.8601C108.566 18.1832 108.678 18.4571 108.902 18.6748C109.125 18.8925 109.391 19.0014 109.702 19.0014H110.055V19.1875H103.239V18.9979H103.591C103.902 18.9979 104.168 18.889 104.392 18.6713C104.615 18.4536 104.727 18.1832 104.727 17.8566V7.25855C102.816 5.21128 101.139 4.1894 99.6995 4.1894C99.3396 4.1894 98.9903 4.25261 98.6549 4.37552L98.5605 4.20696C99.2558 3.70831 100.007 3.45898 100.814 3.45898C101.349 3.45898 101.89 3.56082 102.442 3.76801C102.994 3.97519 103.476 4.20696 103.885 4.47033C104.654 4.98302 105.338 5.54488 105.932 6.1559L113.587 14.1132V7.40955C113.573 7.08648 113.458 6.81258 113.234 6.59486C113.01 6.37714 112.745 6.26828 112.434 6.26828H112.081V6.08216H118.897V6.26828H118.562C118.251 6.26828 117.985 6.37714 117.762 6.59486C117.538 6.81258 117.42 7.07946 117.409 7.39199V18.0813L117.744 18.436C118.328 19.0611 118.674 19.4228 118.779 19.5211C118.883 19.6194 119.1 19.8161 119.421 20.1111C119.743 20.4025 120.005 20.6097 120.204 20.7291C120.403 20.8485 120.676 21.003 121.025 21.1962C121.374 21.3893 121.689 21.5122 121.975 21.5614C122.297 21.6351 122.639 21.6737 122.999 21.6737C123.359 21.6737 123.708 21.6246 124.044 21.5227L124.12 21.7124Z" fill="#19B5FE"/>
<path d="M126.004 7.9545C125.99 7.23111 125.63 6.86942 124.925 6.86942C124.862 6.86942 124.75 6.87644 124.589 6.88697L124.551 6.71842C125.595 6.64467 126.853 6.48314 128.331 6.2303C129.809 5.98098 130.738 5.837 131.115 5.79837C131.493 5.75975 131.846 5.74219 132.167 5.74219C133.159 5.74219 133.945 5.83349 134.522 6.01258C135.098 6.19519 135.605 6.42695 136.038 6.71491C136.471 7.00286 136.821 7.39616 137.083 7.89481C137.369 8.44262 137.512 9.02906 137.512 9.64359C137.512 10.2616 137.432 10.8059 137.271 11.2835C137.111 11.7576 136.88 12.1649 136.583 12.4985C135.689 13.5239 134.546 14.0331 133.156 14.0331C132.67 14.0331 132.23 13.9594 131.832 13.8084C131.098 13.5345 130.626 13.0463 130.417 12.3475L130.602 12.2352C130.777 12.4845 131.06 12.6109 131.458 12.6109C132.066 12.6109 132.607 12.2492 133.079 11.5258C133.365 11.0658 133.509 10.4513 133.509 9.69275C133.509 8.63225 133.243 7.84564 132.709 7.33295C132.31 6.94667 131.807 6.75353 131.199 6.75353C131.049 6.75353 130.895 6.76758 130.735 6.79216L129.823 6.92209V17.8186C129.837 18.1417 129.956 18.4191 130.186 18.6509C130.417 18.8827 130.693 18.9985 131.014 18.9985H131.255V19.1847H124.568V18.9985H124.809C125.131 18.9985 125.407 18.8827 125.637 18.6509C125.868 18.4191 125.987 18.1417 126.001 17.8186V7.9545H126.004Z" fill="#FFCB4A"/>
<path d="M154.817 21.6736C156.368 21.6736 157.444 21.4067 158.038 20.8694L158.188 20.9994C157.643 22.1863 156.861 23.0642 155.841 23.6401C155.208 23.9878 154.275 24.1633 153.046 24.1633C152.92 24.1633 152.707 24.1563 152.403 24.1458C152.099 24.1352 151.61 24.0299 150.932 23.8368C150.254 23.6436 149.688 23.468 149.227 23.3135C148.766 23.159 148.189 22.9167 147.494 22.5936C146.624 22.1828 145.793 21.7684 145 21.3505C144.203 20.9327 143.623 20.6307 143.256 20.4445C142.889 20.2584 142.509 20.0793 142.11 19.9108C141.712 19.7422 141.167 19.5807 140.472 19.4227C139.777 19.2681 139.067 19.1874 138.348 19.1874V18.9978H138.589C139.036 18.9978 139.378 18.8046 139.612 18.4183C139.71 18.2428 139.766 18.0426 139.78 17.8179V7.44805C139.766 6.98803 139.563 6.64389 139.165 6.41915C138.99 6.32082 138.798 6.26815 138.589 6.26815H138.351V6.08203H145.038V6.26815H144.87C144.511 6.26815 144.214 6.38052 143.976 6.60526C143.738 6.83001 143.616 7.11093 143.602 7.44805V18.3446C143.602 18.931 143.836 19.2998 144.311 19.4508C149.119 20.9327 152.619 21.6736 154.817 21.6736Z" fill="#FFCB4A"/>
<path d="M163.4 1.90723C163.575 1.90723 163.749 1.92127 163.92 1.94585V2.13197C162.802 2.26892 161.957 2.79918 161.387 3.72273C160.818 4.64629 160.532 5.86833 160.532 7.39237V14.3735C160.507 16.0204 159.983 17.2776 158.959 18.1449C157.936 19.0123 156.416 19.4477 154.407 19.4477C152.398 19.4477 150.812 18.9983 149.659 18.0993C148.506 17.2003 147.926 16.0029 147.926 14.5034C147.926 14.4648 147.926 14.4296 147.926 14.391V7.18518C147.926 6.92181 147.828 6.70409 147.636 6.52851C147.444 6.35293 147.21 6.26514 146.938 6.26514H146.641V6.07903H153.031V6.26514H152.734C152.349 6.26514 152.063 6.41614 151.878 6.71463C151.804 6.85158 151.759 6.99556 151.748 7.14656V14.3173C151.748 15.6166 152.073 16.6349 152.727 17.3794C153.38 18.1239 154.243 18.4926 155.326 18.4926C155.34 18.4926 155.347 18.4926 155.354 18.4926C155.361 18.4926 155.368 18.4926 155.382 18.4926C156.412 18.4926 157.261 18.1449 157.925 17.4532C158.589 16.7614 158.921 15.7957 158.921 14.5596V7.39237C158.921 5.84375 159.368 4.51636 160.263 3.40317C160.685 2.89048 161.178 2.51474 161.744 2.27243C162.299 2.02662 162.855 1.90723 163.4 1.90723Z" fill="#FFCB4A"/>
<path d="M174.001 16.0028C174.001 16.5401 173.882 17.109 173.648 17.7165C173.41 18.3205 173.033 18.8788 172.512 19.3915C171.992 19.9042 171.321 20.3221 170.5 20.6452C169.679 20.9683 168.788 21.1333 167.817 21.1333C166.846 21.1333 165.979 20.9788 165.211 20.6663C163.771 20.0904 162.831 19.086 162.398 17.6533C162.286 17.267 162.23 16.9053 162.23 16.5682C162.23 15.4831 162.559 14.4647 163.219 13.5166L163.387 13.6465C162.978 14.384 162.772 15.0933 162.772 15.7816C162.772 16.6314 162.982 17.3794 163.404 18.029C163.827 18.6787 164.393 19.1844 165.099 19.5461C165.808 19.9077 166.531 20.0904 167.268 20.0904C168.006 20.0904 168.631 19.971 169.141 19.7357C169.651 19.4969 170.021 19.1808 170.259 18.7805C170.493 18.3802 170.612 17.9623 170.612 17.5269C170.612 17.0914 170.455 16.6455 170.147 16.1889C169.836 15.7324 169.379 15.3356 168.767 15.002L165.731 13.2041C164.19 12.2946 163.422 11.1217 163.422 9.68544C163.422 8.40019 163.869 7.4064 164.763 6.70759C165.508 6.12115 166.521 5.82617 167.799 5.82617C168.62 5.82617 169.662 5.88938 170.93 6.01229H172.383L171.992 9.06388H171.807C171.807 8.3756 171.541 7.82077 171.007 7.39586C170.472 6.97096 169.791 6.76026 168.959 6.76026C168.128 6.76026 167.488 6.90424 167.041 7.19219C166.594 7.48014 166.353 7.8594 166.315 8.33347C166.276 8.65653 166.364 8.93395 166.577 9.15869C166.762 9.35886 166.95 9.50986 167.136 9.61872C167.321 9.72406 167.488 9.82239 167.639 9.91018C167.789 9.99797 167.894 10.0542 167.957 10.0787L171.44 12.0839C172.222 12.5193 172.83 13.0636 173.264 13.7133C173.753 14.4367 174.001 15.2057 174.001 16.0028Z" fill="#FFCB4A"/>
<path d="M25.8673 10.0608V0H16.3574C21.1054 1.32388 24.7912 5.19719 25.8673 10.0608Z" fill="#FFCB4A"/>
<path d="M9.17444 0H0V8.8282C1.3835 4.54754 4.83527 1.208 9.17444 0Z" fill="#FFCB4A"/>
<path d="M25.8677 15.9395C24.7916 20.803 21.1058 24.6799 16.3613 26.0002H25.8677V15.9395Z" fill="#FFCB4A"/>
<path d="M0 17.1719V26.0001H9.17444C4.83527 24.7921 1.3835 21.4525 0 17.1719Z" fill="#FFCB4A"/>
<path d="M7.08553 14.9031C7.08553 14.9031 11.1277 15.1349 11.3933 16.7538C11.795 14.3799 10.8098 13.2527 8.16508 12.7189C8.02882 12.6908 7.90655 12.6908 7.78776 12.6592C7.01915 12.5644 3.43462 12.2413 3.70712 10.4785C3.57786 10.8402 3.48702 11.2511 3.4451 11.7287C3.25294 13.9023 5.50987 14.5801 7.08553 14.9031Z" fill="#FFCB4A"/>
<path d="M11.6972 12.301C12.5532 11.4618 12.4728 9.49176 11.3758 8.72623C10.2788 7.96069 7.92056 7.75702 6.36936 8.19597C5.39811 8.47339 4.5701 8.93341 4.03906 9.77269C4.04954 10.029 4.30808 10.7278 6.47067 11.7287C6.13877 10.9982 6.89341 10.1906 8.04982 10.2468C9.84908 10.3345 9.07348 12.2414 9.07348 12.2414L11.6972 12.301Z" fill="#19B5FE"/>
<path d="M8.39858 15.8449C8.6641 16.3822 8.36713 16.9651 7.17229 17.0669C5.10752 17.2425 5.5023 15.6553 5.5023 15.6553H2.69687C2.38942 17.7728 2.91697 19.4057 5.24377 19.4935C7.2806 19.5707 10.0266 19.5813 11.0293 17.8606C11.0258 17.6569 10.8267 16.9054 8.39858 15.8449Z" fill="#19B5FE"/>
<path d="M3.70667 10.4785C3.70667 10.4785 2.83674 12.6557 5.10764 13.3054C7.37855 13.955 11.4033 14.2289 11.3928 16.7538C11.3928 16.7538 12.0846 15.0085 10.6242 13.7443C9.16732 12.4766 7.04315 12.7681 5.38365 12.1009C3.72414 11.4337 3.70667 10.4785 3.70667 10.4785Z" fill="#FFB000"/>
<path d="M21.1195 8.3191C20.8645 8.3191 20.6828 8.11192 20.7073 7.85908L20.9728 5.32721C21.0008 5.07086 21.2278 4.86719 21.4794 4.86719C21.7344 4.86719 21.9161 5.07437 21.8916 5.32721L21.6261 7.85908C21.6017 8.11192 21.3746 8.3191 21.1195 8.3191Z" fill="#19B5FE"/>
<path d="M19.5823 6.59186C19.6102 6.33551 19.8373 6.13184 20.0889 6.13184H22.6078C22.8629 6.13184 23.0445 6.33902 23.0201 6.59186C22.9921 6.84821 22.765 7.05188 22.5135 7.05188H19.9945C19.7395 7.05188 19.5578 6.84469 19.5823 6.59186Z" fill="#19B5FE"/>
<path d="M21.0218 9.73763C20.4383 8.5472 18.6391 8.31543 14.0728 8.31543H13.8283L12.8535 16.5607C13.0561 16.192 13.43 15.8233 14.0973 15.5669C14.6667 15.3492 15.2327 15.2087 15.7533 15.1209L16.197 11.7287C16.197 11.7287 17.4128 11.7112 17.8949 11.7322C17.8949 11.7322 19.4287 11.8235 21.0218 9.73763Z" fill="#19B5FE"/>
<path d="M18.1917 12.3892C18.1672 12.6385 18.1113 12.8668 18.1113 12.8668L21.2067 12.0416C21.2731 11.3392 21.2871 10.7668 21.1998 10.2998C20.9727 11.0408 20.2669 12.017 18.1917 12.3892Z" fill="#19B5FE"/>
<path d="M12.6862 17.9619L12.543 19.184H15.2261L15.6279 16.0938C15.6279 16.0938 13.4408 16.2412 12.6862 17.9619Z" fill="#19B5FE"/>
<path d="M17.5526 14.9031C17.5526 14.9031 13.0946 15.1349 12.8291 16.7538C12.4273 14.3799 15.8686 12.9507 18.5133 12.4169C18.6496 12.3888 16.7315 12.6908 16.8503 12.6592C17.6189 12.5644 21.4795 12.2413 21.2035 10.4785C21.3327 10.8402 21.2663 11.2405 21.2524 11.7181C21.179 13.9199 19.1282 14.5801 17.5526 14.9031Z" fill="#FFCB4A"/>
<path d="M21.1996 10.2998C21.1996 10.2998 21.804 12.6561 19.5296 13.3057C17.2552 13.9554 12.8182 14.2293 12.8287 16.7542C12.8287 16.7542 12.7064 14.7947 14.1633 13.527C15.6202 12.2593 17.5906 12.765 19.2501 12.0978C20.9096 11.4305 21.1996 10.2998 21.1996 10.2998Z" fill="#FFB000"/>
</svg>
