<svg width="22" height="22" viewBox="0 0 22 22" fill="none" xmlns="http://www.w3.org/2000/svg">
<circle cx="11" cy="11" r="11" fill="#73AF00"/>
<path d="M4.21944 8.0234C4.26003 8.28344 4.41721 8.36508 4.55389 8.35445C4.71506 8.34195 4.85643 8.19457 4.85643 8.03894V7.14645C4.85643 7.10176 4.8928 7.06531 4.93756 7.06531C4.98233 7.06531 5.0187 7.10176 5.0187 7.14645V8.04277C5.0187 8.15055 5.07194 8.25101 5.16124 8.31137C5.21577 8.34828 5.27921 8.3673 5.34315 8.3673C5.38389 8.3673 5.42475 8.35953 5.46374 8.34402L5.54483 8.3116C5.55229 9.06078 5.50674 9.71922 5.50588 9.73129C5.49956 9.82066 5.56682 9.89832 5.6562 9.90465C5.66014 9.90496 5.66405 9.90511 5.66792 9.90511C5.75229 9.90511 5.82354 9.83984 5.82963 9.75441C5.83342 9.70164 5.88342 8.98058 5.86842 8.18215L5.91745 8.16254C5.96046 8.14543 6.00874 8.1475 6.0501 8.16808C6.22885 8.25715 6.44389 8.22246 6.58518 8.08125L6.6144 8.05211C6.74553 7.92074 6.79061 7.72992 6.7319 7.55387L6.5937 7.1393C6.66842 7.1618 6.75049 7.12867 6.78655 7.05672C6.82663 6.97652 6.79417 6.87906 6.71397 6.83898L6.3894 6.67672C6.33069 6.64723 6.26026 6.65629 6.21049 6.69922C6.16088 6.74231 6.1421 6.81094 6.16288 6.8732L6.42397 7.65652C6.44354 7.71516 6.4285 7.77887 6.38483 7.82262L6.35569 7.85176C6.31339 7.89406 6.24897 7.90437 6.19506 7.87773C6.08987 7.82519 5.97018 7.81535 5.85784 7.84398C5.83503 7.32312 5.77893 6.80445 5.65944 6.44594C5.63116 6.36102 5.5394 6.31488 5.45413 6.3434C5.36909 6.3716 5.32315 6.46352 5.35151 6.54863C5.46842 6.8993 5.5194 7.43367 5.53741 7.965L5.34319 8.04269V7.14637C5.34319 6.92262 5.1612 6.74066 4.93749 6.74066C4.71378 6.74066 4.53178 6.92258 4.53178 7.14637V7.93191L4.36628 7.11418C4.34862 7.02621 4.26311 6.96887 4.17506 6.98723C4.08717 7.00512 4.03038 7.0907 4.04819 7.17852L4.21944 8.0234Z" fill="#F5F5F5"/>
<path d="M4.53141 6.65965C4.62102 6.65965 4.69367 6.58707 4.69367 6.49738V6.33512C4.69367 6.24543 4.62102 6.17285 4.53141 6.17285C4.4418 6.17285 4.36914 6.24543 4.36914 6.33512V6.49738C4.36914 6.58703 4.4418 6.65965 4.53141 6.65965Z" fill="#F5F5F5"/>
<path d="M6.15445 6.49738H6.31672C6.40633 6.49738 6.47898 6.4248 6.47898 6.33512C6.47898 6.24543 6.40633 6.17285 6.31672 6.17285H6.15445C6.06484 6.17285 5.99219 6.24543 5.99219 6.33512C5.99215 6.4248 6.0648 6.49738 6.15445 6.49738Z" fill="#F5F5F5"/>
<path d="M5.0972 8.62962L4.28583 9.11646C4.20896 9.16259 4.18407 9.26224 4.23021 9.33911C4.26064 9.38982 4.31435 9.41786 4.3695 9.41786C4.39794 9.41786 4.42673 9.4104 4.45286 9.39474L5.26423 8.9079C5.3411 8.86177 5.36599 8.76212 5.31985 8.68525C5.27372 8.60837 5.17415 8.58349 5.0972 8.62962Z" fill="#F5F5F5"/>
<path d="M7.28629 8.91703L7.29008 8.91445C7.30372 8.9693 7.32708 9.02238 7.36497 9.06692C7.4309 9.14457 7.52977 9.18356 7.64149 9.17438C7.79997 9.16281 7.90774 9.09039 7.97903 8.99688C7.98989 9.00434 8.00129 9.01113 8.01325 9.01715C8.10094 9.06137 8.20239 9.05805 8.29899 9.00797C8.54422 8.88168 8.59708 8.58945 8.58962 8.43668C8.58524 8.34762 8.5095 8.28469 8.42067 8.28297C8.33153 8.28676 8.26219 8.36234 8.26536 8.45141C8.26543 8.45348 8.26907 8.64602 8.15133 8.7175C8.13215 8.6907 8.10934 8.63051 8.10079 8.58074C8.08708 8.49723 8.0104 8.43906 7.92782 8.44574C7.84368 8.45238 7.77868 8.52309 7.77836 8.60754C7.77829 8.63113 7.77305 8.83938 7.61227 8.8568C7.59356 8.83129 7.59325 8.72383 7.61165 8.64445C7.62719 8.57934 7.60102 8.51133 7.54594 8.47332C7.49071 8.43512 7.4179 8.43512 7.36251 8.4727L7.27192 8.5343C7.22891 7.59324 7.12985 6.4966 7.1286 6.48262C7.12051 6.39355 7.04208 6.32715 6.95231 6.3357C6.86301 6.34379 6.79723 6.4227 6.80532 6.51207C6.80672 6.52707 6.92133 7.79582 6.95668 8.76477C6.9484 8.77266 6.93985 8.78129 6.93172 8.78883C6.86754 8.62703 6.74036 8.52512 6.57653 8.50961C6.34532 8.48918 6.09477 8.64652 6.00501 8.87125C5.92758 9.06457 5.97633 9.25461 6.12911 9.35524C6.23891 9.42766 6.40469 9.45047 6.61309 9.37742C6.56223 9.55617 6.46958 9.73746 6.34915 9.87774C6.24129 10.0034 6.06122 10.1484 5.83071 10.1419C5.69657 10.1367 5.59348 10.0928 5.51559 10.0075C5.32774 9.80231 5.34387 9.43086 5.34403 9.42692C5.34872 9.33754 5.28024 9.26133 5.19094 9.25641C5.10102 9.24692 5.02485 9.31996 5.01997 9.40949C5.01887 9.43008 4.99532 9.91821 5.27477 10.2252C5.41231 10.3765 5.59512 10.4575 5.81801 10.4662C5.82887 10.4667 5.83973 10.4668 5.85067 10.4668C6.12211 10.4668 6.38551 10.3337 6.59532 10.0892C6.79266 9.85938 6.92669 9.54723 6.96692 9.25742C6.96637 9.81254 6.63188 10.4387 6.18829 10.7145C5.99993 10.8314 5.70629 10.937 5.37547 10.7739C4.96774 10.5727 5.01629 10.1066 5.01844 10.0876C5.02961 9.99867 4.96645 9.91754 4.87754 9.90645C4.78903 9.89567 4.70743 9.95828 4.69641 10.0473C4.69278 10.0763 4.61481 10.7605 5.23188 11.0649C5.39036 11.1432 5.5561 11.182 5.72313 11.182C5.9377 11.182 6.15426 11.1178 6.35954 10.9901C6.89954 10.6545 7.29153 9.92516 7.29153 9.2561C7.29161 9.15149 7.28965 9.03719 7.28629 8.91703ZM6.30782 9.08434C6.27883 9.06516 6.30149 9.00383 6.30637 8.99164C6.34051 8.90606 6.44743 8.83207 6.53282 8.83207C6.53719 8.83207 6.54161 8.83223 6.5459 8.8327C6.56665 8.83461 6.62172 8.83985 6.64544 8.96235C6.64797 8.97535 6.65012 8.98863 6.65176 9.00227C6.4709 9.10844 6.34965 9.11176 6.30782 9.08434Z" fill="#F5F5F5"/>
<path d="M4.61424 10.5767C4.53737 10.5316 4.43803 10.5574 4.39237 10.6343C4.38491 10.6468 4.37502 10.6604 4.36494 10.6728C4.36319 10.6687 4.36147 10.6642 4.35971 10.6594C4.29205 10.4789 4.34022 10.2008 4.36455 10.1089C4.38744 10.0224 4.33596 9.93362 4.24944 9.9105C4.16307 9.88831 4.07424 9.9387 4.05104 10.0252C4.03924 10.0691 3.93948 10.4631 4.0558 10.7734C4.1303 10.9718 4.24463 11.0219 4.32752 11.0287C4.33491 11.0293 4.34217 11.0296 4.3494 11.0296C4.52412 11.0296 4.64034 10.8536 4.67268 10.7978C4.71752 10.7204 4.69127 10.622 4.61424 10.5767Z" fill="#F5F5F5"/>
<path d="M7.60965 7.63336C7.64477 7.63336 7.68008 7.62211 7.70981 7.59867L8.52793 6.95637C8.53922 6.9475 8.54645 6.9359 8.55469 6.92496C8.6725 6.85391 8.75223 6.72594 8.75223 6.57855C8.75223 6.3548 8.57024 6.17285 8.34653 6.17285C8.12282 6.17285 7.94082 6.35477 7.94082 6.57855C7.94082 6.70375 7.99899 6.81441 8.08836 6.88891L7.5093 7.34352C7.43887 7.39883 7.42657 7.50086 7.48188 7.57125C7.51395 7.61211 7.56157 7.63336 7.60965 7.63336ZM8.34657 6.49742C8.39133 6.49742 8.4277 6.53387 8.4277 6.57855C8.4277 6.62324 8.39133 6.65969 8.34657 6.65969C8.3018 6.65969 8.26543 6.62324 8.26543 6.57855C8.26543 6.53387 8.3018 6.49742 8.34657 6.49742Z" fill="#F5F5F5"/>
<path d="M8.15401 7.47915C8.0685 7.45063 7.97698 7.49672 7.9487 7.58168C7.93136 7.63368 7.85292 7.90133 8.01194 8.06028C8.07366 8.12207 8.15479 8.15297 8.2544 8.15282C8.32097 8.15282 8.39577 8.13918 8.47854 8.11145C8.56358 8.08325 8.60952 7.99133 8.58116 7.90622C8.5528 7.82129 8.46104 7.775 8.37585 7.80368C8.28518 7.83379 8.24686 7.82887 8.24335 7.83204C8.23378 7.80793 8.24011 7.73551 8.25675 7.68372C8.28475 7.59895 8.23878 7.50735 8.15401 7.47915Z" fill="#F5F5F5"/>
<path d="M10.0114 6.80861C10.0266 6.81306 10.0419 6.81509 10.0569 6.81509C10.1272 6.81509 10.1919 6.76916 10.2126 6.6983L10.3073 6.37373C10.3324 6.28767 10.283 6.19752 10.197 6.17248C10.1107 6.14759 10.0209 6.19673 9.99576 6.28279L9.90107 6.60732C9.87595 6.69341 9.92541 6.78357 10.0114 6.80861Z" fill="#F5F5F5"/>
<path d="M9.06576 6.78918C9.0915 6.80422 9.1197 6.81137 9.14751 6.81137C9.20329 6.81137 9.25755 6.7827 9.28775 6.73102C9.33298 6.65368 9.30693 6.55418 9.22958 6.50899C9.19693 6.48997 9.20138 6.43625 9.20255 6.42563C9.2074 6.38301 9.23283 6.33102 9.27704 6.31723C9.36263 6.29059 9.4104 6.19965 9.38376 6.11407C9.35697 6.02832 9.26618 5.98094 9.18052 6.00727C9.01872 6.05766 8.90083 6.20743 8.88005 6.38871C8.86083 6.5575 8.93201 6.7109 9.06576 6.78918Z" fill="#F5F5F5"/>
<path d="M7.7775 9.41797C7.68789 9.41797 7.61523 9.49055 7.61523 9.58023C7.61523 9.65945 7.67195 9.72539 7.74707 9.73965C7.75562 9.75215 7.7775 9.79512 7.7775 9.90477C7.7775 9.99445 7.85016 10.067 7.93977 10.067C8.02937 10.067 8.10203 9.99445 8.10203 9.90477C8.10203 9.42352 7.79074 9.41797 7.7775 9.41797Z" fill="#F5F5F5"/>
<path d="M10.5299 8.74628C10.5502 8.7496 10.5705 8.7512 10.5909 8.7512C10.7184 8.7512 10.8472 8.68686 10.9748 8.55928C11.0382 8.49589 11.0382 8.39319 10.9748 8.32983C10.9114 8.26643 10.8087 8.26643 10.7453 8.32983C10.6483 8.42698 10.596 8.42905 10.5827 8.42604C10.5517 8.42159 10.5237 8.3812 10.5174 8.3701C10.4767 8.2912 10.3802 8.25963 10.3007 8.29944C10.2205 8.33952 10.188 8.43698 10.2281 8.51717C10.2381 8.53725 10.3319 8.71409 10.5299 8.74628Z" fill="#F5F5F5"/>
<path d="M13.2894 7.60541C13.2884 7.60287 13.2874 7.60049 13.2866 7.59826C13.2579 7.51396 13.166 7.46814 13.0818 7.49685C12.9967 7.52506 12.9507 7.61697 12.9791 7.70209C12.9918 7.74014 13.064 7.93092 13.2431 7.95502C13.2551 7.95662 13.267 7.9574 13.2788 7.9574C13.3912 7.9574 13.4967 7.88467 13.5926 7.74076C13.6423 7.66627 13.6222 7.56549 13.5476 7.51572C13.473 7.46611 13.3722 7.48607 13.3226 7.56072C13.3098 7.5799 13.2987 7.59447 13.2894 7.60541Z" fill="#F5F5F5"/>
<path d="M12.9714 10.5544C12.9714 9.86236 12.9409 9.21318 12.8987 8.64439C13.1291 9.044 13.3364 9.44783 13.4685 9.80009C13.493 9.86521 13.5548 9.90533 13.6205 9.90533C13.6394 9.90533 13.6587 9.90201 13.6774 9.89501C13.7613 9.86349 13.8039 9.76997 13.7724 9.68599C13.567 9.13841 13.1978 8.48626 12.834 7.9074C12.7453 7.03326 12.646 6.47841 12.6442 6.46853C12.6282 6.38025 12.5439 6.32068 12.4555 6.33794C12.3673 6.35396 12.3088 6.43841 12.3248 6.52654C12.3261 6.53361 12.3773 6.81939 12.4384 7.30044C12.3137 7.11544 12.1979 6.94853 12.1007 6.81115L12.1086 6.81369C12.1941 6.8422 12.2856 6.79611 12.3139 6.71115C12.3423 6.62603 12.2964 6.53411 12.2113 6.50591L11.7245 6.34365C11.657 6.32083 11.5829 6.3449 11.5415 6.40259C11.5305 6.41798 11.5229 6.43486 11.5178 6.45232C11.4207 6.38048 11.2961 6.32212 11.1791 6.37107C11.1084 6.4004 11.024 6.47423 11.024 6.65982C11.024 6.80228 11.0784 6.9563 11.136 7.11954C11.2315 7.39021 11.2914 7.58927 11.1902 7.68419C11.1342 7.73665 11.0784 7.75646 11.0238 7.74267C10.9237 7.71732 10.8247 7.58404 10.7587 7.38611C10.7559 7.37751 10.7498 7.3713 10.7458 7.36353C10.7799 7.11216 10.765 6.80931 10.6963 6.46568C10.6788 6.37771 10.5935 6.32052 10.5053 6.33841C10.4174 6.35599 10.3605 6.44142 10.378 6.52939C10.484 7.05931 10.4522 7.49161 10.293 7.68576C10.2314 7.76087 10.1543 7.79572 10.0503 7.79572C10.0174 7.79572 9.995 7.78525 9.97265 7.75958C9.84461 7.61204 9.84515 7.13599 9.88644 6.8449C9.89301 6.79845 9.87906 6.75122 9.84824 6.71576C9.81742 6.68025 9.77273 6.65982 9.72574 6.65982C9.44652 6.65982 9.34066 6.9774 9.24723 7.25759C9.20625 7.38072 9.12988 7.6097 9.07664 7.63349C8.9784 7.63349 8.91492 7.34505 8.91438 7.1465C8.91414 7.05697 8.84156 6.98454 8.75211 6.98454C8.75211 6.98454 8.75195 6.98454 8.75188 6.98454C8.66234 6.98454 8.58984 7.05712 8.58984 7.14665C8.58984 7.52095 8.71734 7.95802 9.07668 7.95802C9.34426 7.95802 9.45266 7.66642 9.5434 7.39544C9.55918 7.61095 9.60781 7.83427 9.72746 7.97212C9.81152 8.06911 9.92316 8.12029 10.0503 8.12029C10.2507 8.12029 10.4213 8.04122 10.544 7.89161C10.5662 7.86454 10.5853 7.83345 10.6043 7.80204C10.6985 7.93603 10.8141 8.02431 10.9443 8.0572C10.9825 8.06685 11.0209 8.07177 11.0589 8.07177C11.1842 8.07177 11.3066 8.02009 11.4123 7.92076C11.4343 7.90009 11.4498 7.87751 11.4665 7.85529C11.5062 7.86661 11.5464 7.87337 11.5864 7.87337C11.7178 7.87337 11.8444 7.82044 11.9229 7.77005C11.998 7.72189 12.0198 7.62236 11.9721 7.54693C11.9243 7.47165 11.8243 7.44915 11.7486 7.49638C11.7473 7.49704 11.6389 7.55931 11.5649 7.54474C11.5651 7.36685 11.5007 7.1779 11.442 7.01146C11.4086 6.91669 11.3743 6.81954 11.3581 6.74017C11.3715 6.75142 11.3845 6.76314 11.3962 6.77454C11.4594 6.83794 11.5622 6.83794 11.6256 6.77454C11.6361 6.76408 11.6421 6.7513 11.6491 6.73904C11.8173 6.97076 12.1633 7.45771 12.5192 8.01904C12.5871 8.70896 12.6468 9.58915 12.6468 10.5544C12.6468 10.6441 12.7194 10.7167 12.809 10.7167C12.8986 10.7167 12.9714 10.6441 12.9714 10.5544Z" fill="#F5F5F5"/>
<path d="M13.133 6.98396C13.133 7.07365 13.2057 7.14622 13.2953 7.14622C13.3849 7.14622 13.4576 7.07365 13.4576 6.98396C13.4576 6.79298 13.3081 6.48447 13.2782 6.42455C13.2381 6.34451 13.1407 6.3122 13.0605 6.35197C12.9803 6.39205 12.9478 6.48951 12.9879 6.5697C13.0464 6.68681 13.133 6.89935 13.133 6.98396Z" fill="#F5F5F5"/>
<path d="M12.3941 10.5718C12.3146 10.5312 12.2168 10.5634 12.1763 10.6433C12.1589 10.6773 12.1319 10.7152 12.1091 10.7396C12.1018 10.6751 12.1191 10.5463 12.1518 10.4395C12.1736 10.3681 12.144 10.2912 12.0801 10.2528C12.0165 10.2143 11.9345 10.2243 11.8819 10.2771L11.5573 10.6016C11.4939 10.665 11.4939 10.7677 11.5573 10.8311C11.6207 10.8944 11.7234 10.8945 11.7868 10.8311L11.795 10.8228C11.809 10.8879 11.8359 10.9474 11.8818 10.9933C11.9427 11.0542 12.0162 11.0863 12.0927 11.0863C12.1075 11.0863 12.1224 11.0851 12.1373 11.0827C12.3211 11.0529 12.4356 10.8503 12.4663 10.7889C12.5063 10.7088 12.474 10.612 12.3941 10.5718Z" fill="#F5F5F5"/>
<path d="M12.332 9.26622H11.1883C11.1984 9.22579 11.2089 9.18732 11.2195 9.15071C11.6756 9.05595 11.9467 8.90872 12.0264 8.71224C12.054 8.64411 12.0827 8.50638 11.9654 8.34806C11.8596 8.20544 11.7102 8.14142 11.5552 8.1731C11.3246 8.21986 11.1191 8.46833 10.9717 8.86611C10.5136 8.94454 10.2203 9.10896 10.0347 9.27126C9.96888 8.6063 9.71071 8.21126 9.69821 8.19243C9.64845 8.11779 9.54767 8.09767 9.47317 8.14743C9.3986 8.1972 9.37849 8.29782 9.42817 8.37247C9.4311 8.37693 9.72548 8.82712 9.72548 9.58068C9.72548 10.3214 9.13485 10.8789 8.75185 10.8789C8.56962 10.8789 8.48989 10.6623 8.45482 10.4792C8.82985 10.2163 9.16075 9.9122 9.23384 9.62001C9.33271 9.22462 9.20825 8.93318 9.12591 8.74032C9.12204 8.73146 9.11798 8.72193 9.11388 8.71212C9.11735 8.71529 9.12067 8.71861 9.12403 8.72177C9.18728 8.78517 9.29005 8.78517 9.35341 8.72177C9.41681 8.65837 9.41681 8.55568 9.35341 8.49232C9.25857 8.39739 9.07435 8.24825 8.90692 8.31833C8.83618 8.34767 8.75185 8.4215 8.75185 8.60708C8.75185 8.69091 8.78689 8.77282 8.82743 8.86794C8.90048 9.03892 8.99138 9.25177 8.91896 9.54146C8.8761 9.71286 8.66556 9.92083 8.38778 10.1273C8.35802 10.0917 8.31497 10.0677 8.26501 10.0677H8.26478C8.17525 10.0679 8.10274 10.1403 8.10274 10.2299C8.10274 10.259 8.104 10.2903 8.10591 10.3223C7.75864 10.5472 7.36564 10.7554 7.06189 10.8935C6.98036 10.9306 6.94431 11.0268 6.98138 11.1084C7.00857 11.1681 7.06751 11.2035 7.12915 11.2035C7.15165 11.2035 7.17446 11.1989 7.19618 11.1889C7.28743 11.1474 7.72052 10.9457 8.16536 10.6699C8.24728 10.9481 8.42091 11.2035 8.75181 11.2035C9.1411 11.2035 9.58275 10.8852 9.83759 10.4099C9.86833 10.4642 9.90372 10.5163 9.94587 10.5649C10.3543 11.0358 11.1522 11.0412 11.1859 11.0412C11.2733 11.0412 11.3449 10.9721 11.3481 10.8848C11.3512 10.7975 11.2846 10.7233 11.1975 10.7172C11.1963 10.717 11.067 10.7027 10.995 10.6188C10.9516 10.5681 10.9342 10.4983 10.9419 10.4056C10.9586 10.2056 11.6036 10.0562 12.1722 10.0473C12.2399 10.0462 12.2999 10.0032 12.3226 9.93935L12.4849 9.48294C12.5025 9.43333 12.495 9.37802 12.4645 9.33509C12.4342 9.29189 12.3847 9.26622 12.332 9.26622ZM11.6197 8.4913C11.6227 8.49068 11.6269 8.4897 11.632 8.4897C11.6476 8.4897 11.672 8.49732 11.7047 8.54138C11.7108 8.54962 11.7306 8.57782 11.7256 8.59021C11.707 8.63614 11.5949 8.71208 11.3615 8.78083C11.4642 8.58052 11.5646 8.50239 11.6197 8.4913ZM10.6397 10.6245C10.4748 10.5709 10.3068 10.486 10.1905 10.3515C10.0627 10.2036 10.0154 10.0166 10.0464 9.78001C10.0511 9.76759 10.0617 9.74306 10.0802 9.71122C10.3088 9.69028 10.9192 9.78036 10.9615 9.95521C10.7732 10.0513 10.6345 10.1865 10.6185 10.3786C10.6105 10.4749 10.6203 10.5565 10.6397 10.6245Z" fill="#F5F5F5"/>
<path d="M14.0985 6.93285L13.9363 6.44601C13.9101 6.36773 13.8289 6.32097 13.7484 6.33871C13.6675 6.35597 13.6126 6.43125 13.6208 6.51351C13.7328 7.63328 13.9446 9.81703 13.9446 10.0674C13.9446 10.2923 13.5446 10.7351 12.8983 11.0582C12.8181 11.0983 12.7857 11.1957 12.8258 11.2759C12.8542 11.3328 12.9115 11.3656 12.9711 11.3656C12.9954 11.3656 13.0202 11.3601 13.0435 11.3485C13.6338 11.0533 14.2691 10.5265 14.2691 10.0674C14.2691 9.82765 14.1033 8.10254 14.0083 7.13347C14.0853 7.10066 14.1255 7.01367 14.0985 6.93285Z" fill="#F5F5F5"/>
<path d="M15.4522 8.39675C15.4834 8.42796 15.525 8.44429 15.567 8.44429C15.5945 8.44429 15.6221 8.4373 15.6472 8.42304C15.7107 8.38691 15.7422 8.31273 15.7243 8.24191C15.6952 8.12781 15.6855 7.98519 15.7009 7.92687C15.7822 7.92941 15.8576 7.87156 15.8696 7.78773C15.8823 7.69898 15.8206 7.61675 15.732 7.60406C15.6247 7.58949 15.5305 7.62101 15.4647 7.69421C15.422 7.74175 15.3967 7.80277 15.3829 7.86839L15.195 7.68046C15.1316 7.61707 15.0289 7.61707 14.9655 7.68046C14.9021 7.74386 14.9021 7.84656 14.9655 7.90992L15.4522 8.39675Z" fill="#F5F5F5"/>
<path d="M15.8169 8.56578L15.2084 9.00192C15.1356 9.05407 15.1188 9.15547 15.171 9.22836C15.2027 9.27258 15.2525 9.29602 15.3031 9.29602C15.3358 9.29602 15.3689 9.28618 15.3975 9.26559L16.006 8.82946C16.0788 8.77731 16.0956 8.6759 16.0434 8.60301C15.991 8.53012 15.8895 8.51317 15.8169 8.56578Z" fill="#F5F5F5"/>
<path d="M15.7627 9.17597C15.7117 9.24175 15.7189 9.33429 15.7769 9.39116C15.7838 9.40288 15.8154 9.46503 15.8097 9.62476C15.8066 9.71445 15.8766 9.78956 15.9661 9.79273C15.9681 9.79288 15.9701 9.79288 15.972 9.79288C16.059 9.79288 16.1309 9.72394 16.1341 9.63648C16.1459 9.30527 16.0375 9.18421 15.9904 9.14761C15.9198 9.0923 15.8177 9.10531 15.7627 9.17597Z" fill="#F5F5F5"/>
<path d="M17.1804 10.3716C17.27 10.3716 17.3427 10.299 17.3427 10.2093C17.3427 9.96985 17.3304 9.70258 17.3102 9.4245C17.4711 9.68817 17.6048 9.93126 17.6905 10.1312C17.7168 10.1928 17.7767 10.2296 17.8397 10.2296C17.8611 10.2296 17.8827 10.2255 17.9036 10.2164C17.9859 10.1811 18.0241 10.0857 17.9888 10.0034C17.8402 9.65673 17.5626 9.19747 17.2464 8.72333C17.1827 8.1277 17.0996 7.54411 17.035 7.12544C17.0693 7.12891 17.105 7.12051 17.1363 7.10024C17.1875 7.06739 17.2116 7.0104 17.2081 6.95364C17.2123 6.96958 17.2168 6.98559 17.2261 7.00024C17.2272 7.00184 17.3315 7.17407 17.2852 7.39755C17.267 7.48516 17.3234 7.57106 17.4112 7.5893C17.4223 7.59153 17.4334 7.59262 17.4443 7.59262C17.5196 7.59262 17.5871 7.53985 17.6031 7.46317C17.6763 7.10868 17.5071 6.83735 17.4999 6.82594C17.4517 6.75051 17.3514 6.72833 17.2758 6.77618C17.2244 6.80899 17.2 6.86606 17.2034 6.9229C17.1991 6.90684 17.1945 6.89071 17.1851 6.87598L16.9113 6.45001C16.8694 6.38505 16.7876 6.35872 16.7157 6.38661C16.6437 6.41481 16.6015 6.48977 16.6149 6.56583C16.6172 6.5786 16.7412 7.29071 16.8511 8.14899C16.7267 7.97329 16.6023 7.80153 16.4816 7.63762C16.462 7.39212 16.4424 7.16512 16.4254 6.97743C16.4343 6.97473 16.4431 6.97126 16.4517 6.96696C16.5319 6.92688 16.5644 6.82942 16.5243 6.74923L16.362 6.42466C16.327 6.35462 16.2471 6.31973 16.1718 6.3413C16.0966 6.36317 16.0476 6.43544 16.0554 6.5134C16.0748 6.70708 16.0949 6.92145 16.1147 7.14665C16.012 7.01133 15.9171 6.88751 15.8358 6.78266C15.8517 6.76903 15.8652 6.75208 15.8752 6.73212C15.9153 6.65192 15.8828 6.55446 15.8026 6.51438L15.4781 6.35212C15.41 6.31821 15.3273 6.33594 15.2793 6.3952C15.2314 6.45446 15.2312 6.53911 15.2788 6.59868C15.2875 6.60958 15.6871 7.11044 16.165 7.75692C16.2479 8.82911 16.3031 9.94442 16.2252 10.1782C16.2109 10.221 16.186 10.2714 16.1627 10.2732C16.0646 10.2868 15.8305 10.0675 15.7129 9.83247C15.6452 9.69712 15.5477 9.68301 15.4956 9.6854C15.3212 9.69618 15.2531 9.88809 15.1295 10.2364C15.0408 10.486 14.9307 10.7963 14.807 10.9232C14.74 10.8414 14.6533 10.5666 14.6052 10.2843C14.6278 10.3468 14.6862 10.3919 14.7564 10.3919C14.846 10.3919 14.9187 10.3193 14.9187 10.2296C14.9187 9.98762 14.7494 8.14462 14.6549 7.1345C14.7338 7.10282 14.7753 7.01454 14.748 6.93278L14.5858 6.44594C14.5597 6.36766 14.4796 6.32153 14.3982 6.33848C14.3175 6.35559 14.2624 6.43055 14.2703 6.51266C14.3805 7.67032 14.5873 9.90633 14.5938 10.2149C14.5934 10.2122 14.5928 10.2094 14.5924 10.2066C14.5798 10.1179 14.497 10.057 14.4088 10.069C14.3201 10.0818 14.2585 10.1639 14.2712 10.2526C14.3186 10.5843 14.4397 11.1547 14.7186 11.2475C14.7406 11.255 14.7703 11.2616 14.805 11.2616C14.869 11.2616 14.9503 11.239 15.0334 11.1557C15.2102 10.9791 15.3297 10.6422 15.4353 10.345C15.4591 10.2778 15.4873 10.1982 15.5139 10.1301C15.6628 10.3475 15.9226 10.6182 16.1857 10.597C16.2782 10.5904 16.4466 10.5406 16.5331 10.281C16.6194 10.0222 16.5853 9.11934 16.5271 8.25505C16.6638 8.44669 16.8007 8.64286 16.9313 8.83669C16.9819 9.32262 17.0181 9.8095 17.0181 10.2094C17.0181 10.299 17.0907 10.3716 17.1804 10.3716Z" fill="#F5F5F5"/>
<path d="M18.4113 9.51817C18.2964 8.66181 18.1362 7.66978 18.0348 7.06091C18.0806 7.07216 18.1305 7.06298 18.1708 7.03208C18.2421 6.97771 18.2557 6.87583 18.2014 6.80466L17.9072 6.41927C17.8619 6.36001 17.7818 6.33907 17.7133 6.36904C17.6447 6.399 17.6056 6.47189 17.6183 6.54556C17.6213 6.5622 17.9106 8.22806 18.0896 9.56126C18.158 10.0708 18.0582 10.526 17.8224 10.779C17.671 10.9414 17.4702 11.0149 17.2272 11.0008C17.138 10.9961 17.0606 11.0633 17.055 11.1527C17.0494 11.242 17.1173 11.3191 17.2067 11.3248C17.2342 11.3265 17.2612 11.3273 17.2879 11.3273C17.594 11.3273 17.8595 11.2151 18.0598 11.0002C18.3656 10.6722 18.4937 10.1319 18.4113 9.51817Z" fill="#F5F5F5"/>
<path d="M16.6267 10.5872C16.5671 10.652 16.5716 10.7541 16.6347 10.8153C16.6435 10.8238 16.6541 10.8406 16.6542 10.8489C16.6542 10.8535 16.6477 10.8671 16.6296 10.8852C16.5662 10.9486 16.5662 11.0513 16.6296 11.1146C16.6613 11.1463 16.7028 11.1622 16.7443 11.1622C16.7858 11.1622 16.8274 11.1463 16.859 11.1146C16.962 11.0118 16.9808 10.9074 16.9785 10.8378C16.9735 10.688 16.8716 10.5914 16.8512 10.5734C16.785 10.5158 16.6863 10.5227 16.6267 10.5872Z" fill="#F5F5F5"/>
<path d="M16.0533 14.1468H15.891H14.9173V13.9845C14.9173 13.8948 14.8447 13.8223 14.7551 13.8223C14.6655 13.8223 14.5928 13.8948 14.5928 13.9845V14.1468H5.99219C6.31672 14.4714 6.96582 14.6336 7.45266 14.6336C7.8018 14.6336 12.157 14.6336 14.5928 14.6336V14.9582C14.5928 15.0479 14.6654 15.1205 14.755 15.1205H16.0532C16.3217 15.1205 16.5401 14.9021 16.5401 14.6336C16.5401 14.3652 16.3217 14.1468 16.0533 14.1468ZM16.0533 14.7959H14.9173V14.6336C15.6994 14.6336 16.2155 14.6336 16.2155 14.6336L16.1864 14.5463C16.2033 14.5719 16.2155 14.6007 16.2155 14.6336C16.2155 14.7232 16.1427 14.7959 16.0533 14.7959Z" fill="#F5F5F5"/>
</svg>
