<?xml version="1.0" encoding="UTF-8"?>
<!DOCTYPE svg PUBLIC "-//W3C//DTD SVG 1.1//EN" "http://www.w3.org/Graphics/SVG/1.1/DTD/svg11.dtd">
<!-- Creator: CorelDRAW 2021 (64-Bit) -->
<svg xmlns="http://www.w3.org/2000/svg" xml:space="preserve" width="14.2354mm" height="9.7896mm" version="1.1" style="shape-rendering:geometricPrecision; text-rendering:geometricPrecision; image-rendering:optimizeQuality; fill-rule:evenodd; clip-rule:evenodd"
viewBox="0 0 54.37 37.39"
 xmlns:xlink="http://www.w3.org/1999/xlink"
 xmlns:xodm="http://www.corel.com/coreldraw/odm/2003">
 <defs>
  <style type="text/css">
   <![CDATA[
    .fil1 {fill:#19B5FE;fill-rule:nonzero}
    .fil0 {fill:#FFCB4A;fill-rule:nonzero}
   ]]>
  </style>
 </defs>
 <g id="Layer_x0020_1">
  <metadata id="CorelCorpID_0Corel-Layer"/>
  <path class="fil0" d="M25.06 36.67c-0.45,0.46 -1.07,0.72 -1.71,0.72 -0.64,0 -1.26,-0.26 -1.71,-0.72l-13.69 -13.88c-1.42,-1.44 -1.42,-3.78 0,-5.21l1.71 -1.74c1.42,-1.44 3.72,-1.44 5.14,0l8.55 8.67 23.1 -23.42c1.42,-1.44 3.73,-1.44 5.14,0l1.71 1.74c1.42,1.44 1.42,3.78 0,5.21l-28.24 28.64z"/>
  <path class="fil1" d="M18.19 36.67c-0.45,0.46 -1.07,0.72 -1.71,0.72 -0.64,0 -1.26,-0.26 -1.71,-0.72l-13.69 -13.88c-1.42,-1.44 -1.42,-3.78 0,-5.21l1.71 -1.74c1.42,-1.44 3.72,-1.44 5.14,0l8.55 8.67 23.1 -23.42c1.42,-1.44 3.73,-1.44 5.14,0l1.71 1.74c1.42,1.44 1.42,3.78 0,5.21l-28.24 28.64z"/>
 </g>
</svg>
